<mxfile host="app.diagrams.net" modified="2023-09-12T08:53:49.215Z" agent="Mozilla/5.0 (Windows NT 10.0; Win64; x64) AppleWebKit/537.36 (KHTML, like Gecko) Chrome/116.0.0.0 Safari/537.36" etag="6zYtRD0TPqiQnyg7LGjx" version="21.7.4" type="device">
  <diagram name="Page-1" id="6X0ASjpYkZlpAfkYboPr">
    <mxGraphModel dx="2514" dy="882" grid="1" gridSize="10" guides="1" tooltips="1" connect="1" arrows="1" fold="1" page="1" pageScale="1" pageWidth="827" pageHeight="1169" math="0" shadow="0">
      <root>
        <mxCell id="0" />
        <mxCell id="1" parent="0" />
        <mxCell id="j4gY_w8FPZH6L7lz_LQ5-68" style="edgeStyle=orthogonalEdgeStyle;rounded=0;orthogonalLoop=1;jettySize=auto;html=1;exitX=0.5;exitY=1;exitDx=0;exitDy=0;entryX=0.5;entryY=0;entryDx=0;entryDy=0;dashed=1;endArrow=none;endFill=0;strokeWidth=2;" parent="1" source="j4gY_w8FPZH6L7lz_LQ5-6" target="j4gY_w8FPZH6L7lz_LQ5-7" edge="1">
          <mxGeometry relative="1" as="geometry" />
        </mxCell>
        <mxCell id="j4gY_w8FPZH6L7lz_LQ5-60" style="edgeStyle=orthogonalEdgeStyle;rounded=0;orthogonalLoop=1;jettySize=auto;html=1;exitX=0.5;exitY=1;exitDx=0;exitDy=0;entryX=0.5;entryY=0;entryDx=0;entryDy=0;" parent="1" source="j4gY_w8FPZH6L7lz_LQ5-1" target="j4gY_w8FPZH6L7lz_LQ5-2" edge="1">
          <mxGeometry relative="1" as="geometry" />
        </mxCell>
        <mxCell id="j4gY_w8FPZH6L7lz_LQ5-61" style="edgeStyle=orthogonalEdgeStyle;rounded=0;orthogonalLoop=1;jettySize=auto;html=1;exitX=0.25;exitY=1;exitDx=0;exitDy=0;" parent="1" source="j4gY_w8FPZH6L7lz_LQ5-1" target="j4gY_w8FPZH6L7lz_LQ5-9" edge="1">
          <mxGeometry relative="1" as="geometry">
            <Array as="points">
              <mxPoint x="500" y="200" />
              <mxPoint x="500" y="220" />
              <mxPoint x="260" y="220" />
            </Array>
          </mxGeometry>
        </mxCell>
        <mxCell id="j4gY_w8FPZH6L7lz_LQ5-62" style="edgeStyle=orthogonalEdgeStyle;rounded=0;orthogonalLoop=1;jettySize=auto;html=1;exitX=0.75;exitY=1;exitDx=0;exitDy=0;entryX=0.5;entryY=0;entryDx=0;entryDy=0;" parent="1" source="j4gY_w8FPZH6L7lz_LQ5-1" target="j4gY_w8FPZH6L7lz_LQ5-23" edge="1">
          <mxGeometry relative="1" as="geometry">
            <Array as="points">
              <mxPoint x="500" y="200" />
            </Array>
          </mxGeometry>
        </mxCell>
        <mxCell id="j4gY_w8FPZH6L7lz_LQ5-63" style="edgeStyle=orthogonalEdgeStyle;rounded=0;orthogonalLoop=1;jettySize=auto;html=1;exitX=1;exitY=1;exitDx=0;exitDy=0;" parent="1" source="j4gY_w8FPZH6L7lz_LQ5-1" target="j4gY_w8FPZH6L7lz_LQ5-31" edge="1">
          <mxGeometry relative="1" as="geometry">
            <Array as="points">
              <mxPoint x="500" y="200" />
              <mxPoint x="500" y="220" />
              <mxPoint x="780" y="220" />
            </Array>
          </mxGeometry>
        </mxCell>
        <mxCell id="j4gY_w8FPZH6L7lz_LQ5-64" style="edgeStyle=orthogonalEdgeStyle;rounded=0;orthogonalLoop=1;jettySize=auto;html=1;exitX=1;exitY=0.5;exitDx=0;exitDy=0;" parent="1" source="j4gY_w8FPZH6L7lz_LQ5-1" target="j4gY_w8FPZH6L7lz_LQ5-46" edge="1">
          <mxGeometry relative="1" as="geometry">
            <Array as="points">
              <mxPoint x="600" y="200" />
              <mxPoint x="500" y="200" />
              <mxPoint x="500" y="220" />
              <mxPoint x="1070" y="220" />
            </Array>
          </mxGeometry>
        </mxCell>
        <mxCell id="j4gY_w8FPZH6L7lz_LQ5-1" value="AAS of Workpiece Trasnfer Unit" style="rounded=0;whiteSpace=wrap;html=1;fillColor=none;strokeWidth=2;" parent="1" vertex="1">
          <mxGeometry x="400" y="160" width="200" height="40" as="geometry" />
        </mxCell>
        <mxCell id="j4gY_w8FPZH6L7lz_LQ5-67" style="edgeStyle=orthogonalEdgeStyle;rounded=0;orthogonalLoop=1;jettySize=auto;html=1;exitX=0.5;exitY=1;exitDx=0;exitDy=0;entryX=0.5;entryY=0;entryDx=0;entryDy=0;strokeWidth=2;" parent="1" source="j4gY_w8FPZH6L7lz_LQ5-2" target="j4gY_w8FPZH6L7lz_LQ5-3" edge="1">
          <mxGeometry relative="1" as="geometry">
            <Array as="points">
              <mxPoint y="280" />
            </Array>
          </mxGeometry>
        </mxCell>
        <mxCell id="j4gY_w8FPZH6L7lz_LQ5-2" value="Nameplate Submodel" style="rounded=0;whiteSpace=wrap;html=1;fillColor=none;strokeWidth=2;" parent="1" vertex="1">
          <mxGeometry x="-80" y="240" width="200" height="40" as="geometry" />
        </mxCell>
        <mxCell id="j4gY_w8FPZH6L7lz_LQ5-69" style="edgeStyle=orthogonalEdgeStyle;rounded=0;orthogonalLoop=1;jettySize=auto;html=1;exitX=1;exitY=0.5;exitDx=0;exitDy=0;entryX=0.831;entryY=-0.003;entryDx=0;entryDy=0;entryPerimeter=0;" parent="1" source="j4gY_w8FPZH6L7lz_LQ5-3" target="j4gY_w8FPZH6L7lz_LQ5-8" edge="1">
          <mxGeometry relative="1" as="geometry">
            <mxPoint x="100" y="630" as="targetPoint" />
            <Array as="points">
              <mxPoint x="100" y="335" />
            </Array>
          </mxGeometry>
        </mxCell>
        <mxCell id="j4gY_w8FPZH6L7lz_LQ5-95" style="edgeStyle=orthogonalEdgeStyle;rounded=0;orthogonalLoop=1;jettySize=auto;html=1;exitX=0.5;exitY=1;exitDx=0;exitDy=0;entryX=0.5;entryY=0;entryDx=0;entryDy=0;dashed=1;strokeWidth=2;endArrow=none;endFill=0;" parent="1" source="j4gY_w8FPZH6L7lz_LQ5-3" target="j4gY_w8FPZH6L7lz_LQ5-4" edge="1">
          <mxGeometry relative="1" as="geometry" />
        </mxCell>
        <mxCell id="j4gY_w8FPZH6L7lz_LQ5-3" value="&amp;nbsp; MLP. Manufacturer Name" style="rounded=0;whiteSpace=wrap;html=1;fillColor=none;strokeWidth=2;align=left;" parent="1" vertex="1">
          <mxGeometry x="-80" y="320" width="160" height="30" as="geometry" />
        </mxCell>
        <mxCell id="j4gY_w8FPZH6L7lz_LQ5-71" style="rounded=0;orthogonalLoop=1;jettySize=auto;html=1;exitX=1;exitY=0.5;exitDx=0;exitDy=0;endArrow=none;endFill=0;" parent="1" source="j4gY_w8FPZH6L7lz_LQ5-4" edge="1">
          <mxGeometry relative="1" as="geometry">
            <mxPoint x="100" y="385" as="targetPoint" />
            <Array as="points">
              <mxPoint x="90" y="385" />
            </Array>
          </mxGeometry>
        </mxCell>
        <mxCell id="j4gY_w8FPZH6L7lz_LQ5-96" style="edgeStyle=orthogonalEdgeStyle;rounded=0;orthogonalLoop=1;jettySize=auto;html=1;exitX=0.5;exitY=1;exitDx=0;exitDy=0;entryX=0.5;entryY=0;entryDx=0;entryDy=0;dashed=1;strokeWidth=2;endArrow=none;endFill=0;" parent="1" source="j4gY_w8FPZH6L7lz_LQ5-7" target="j4gY_w8FPZH6L7lz_LQ5-26" edge="1">
          <mxGeometry relative="1" as="geometry" />
        </mxCell>
        <mxCell id="j4gY_w8FPZH6L7lz_LQ5-7" value="&amp;nbsp; Prop. Country of Origin" style="rounded=0;whiteSpace=wrap;html=1;fillColor=none;strokeWidth=2;align=left;" parent="1" vertex="1">
          <mxGeometry x="-80" y="555" width="160" height="30" as="geometry" />
        </mxCell>
        <mxCell id="j4gY_w8FPZH6L7lz_LQ5-6" value="&amp;nbsp; MLP. Hardware Version" style="rounded=0;whiteSpace=wrap;html=1;fillColor=none;strokeWidth=2;align=left;" parent="1" vertex="1">
          <mxGeometry x="-80" y="420" width="160" height="30" as="geometry" />
        </mxCell>
        <mxCell id="j4gY_w8FPZH6L7lz_LQ5-8" value="Concept Description" style="rounded=0;whiteSpace=wrap;html=1;fillColor=none;strokeWidth=2;" parent="1" vertex="1">
          <mxGeometry y="650" width="120" height="30" as="geometry" />
        </mxCell>
        <mxCell id="j4gY_w8FPZH6L7lz_LQ5-87" style="edgeStyle=orthogonalEdgeStyle;rounded=0;orthogonalLoop=1;jettySize=auto;html=1;exitX=0.25;exitY=1;exitDx=0;exitDy=0;strokeWidth=2;" parent="1" source="j4gY_w8FPZH6L7lz_LQ5-9" edge="1">
          <mxGeometry relative="1" as="geometry">
            <mxPoint x="240" y="320" as="targetPoint" />
            <Array as="points">
              <mxPoint x="240" y="280" />
            </Array>
          </mxGeometry>
        </mxCell>
        <mxCell id="j4gY_w8FPZH6L7lz_LQ5-9" value="Operational Submodel" style="rounded=0;whiteSpace=wrap;html=1;fillColor=none;strokeWidth=2;" parent="1" vertex="1">
          <mxGeometry x="160" y="240" width="200" height="40" as="geometry" />
        </mxCell>
        <mxCell id="j4gY_w8FPZH6L7lz_LQ5-76" style="edgeStyle=orthogonalEdgeStyle;rounded=0;orthogonalLoop=1;jettySize=auto;html=1;exitX=1;exitY=0.5;exitDx=0;exitDy=0;entryX=0.838;entryY=0;entryDx=0;entryDy=0;entryPerimeter=0;" parent="1" source="j4gY_w8FPZH6L7lz_LQ5-10" target="j4gY_w8FPZH6L7lz_LQ5-22" edge="1">
          <mxGeometry relative="1" as="geometry">
            <Array as="points">
              <mxPoint x="340" y="335" />
              <mxPoint x="340" y="710" />
            </Array>
            <mxPoint x="430" y="690" as="targetPoint" />
          </mxGeometry>
        </mxCell>
        <mxCell id="j4gY_w8FPZH6L7lz_LQ5-10" value="&amp;nbsp; Opr. Pick and Place" style="rounded=0;whiteSpace=wrap;html=1;fillColor=none;strokeWidth=2;align=left;" parent="1" vertex="1">
          <mxGeometry x="160" y="320" width="150" height="30" as="geometry" />
        </mxCell>
        <mxCell id="j4gY_w8FPZH6L7lz_LQ5-77" style="edgeStyle=orthogonalEdgeStyle;rounded=0;orthogonalLoop=1;jettySize=auto;html=1;exitX=1;exitY=0.5;exitDx=0;exitDy=0;endArrow=none;endFill=0;" parent="1" source="j4gY_w8FPZH6L7lz_LQ5-11" edge="1">
          <mxGeometry relative="1" as="geometry">
            <mxPoint x="340" y="384.95180722891564" as="targetPoint" />
          </mxGeometry>
        </mxCell>
        <mxCell id="j4gY_w8FPZH6L7lz_LQ5-11" value="&amp;nbsp; Opr. Service" style="rounded=0;whiteSpace=wrap;html=1;fillColor=none;strokeWidth=2;align=left;" parent="1" vertex="1">
          <mxGeometry x="160" y="350" width="150" height="30" as="geometry" />
        </mxCell>
        <mxCell id="j4gY_w8FPZH6L7lz_LQ5-12" value="&amp;nbsp; Prop. Is Busy" style="rounded=0;whiteSpace=wrap;html=1;fillColor=none;strokeWidth=2;align=left;" parent="1" vertex="1">
          <mxGeometry x="160" y="399.97" width="150" height="30" as="geometry" />
        </mxCell>
        <mxCell id="j4gY_w8FPZH6L7lz_LQ5-13" value="&amp;nbsp; Prop. Is Under Service" style="rounded=0;whiteSpace=wrap;html=1;fillColor=none;strokeWidth=2;align=left;" parent="1" vertex="1">
          <mxGeometry x="160" y="429.97" width="150" height="30" as="geometry" />
        </mxCell>
        <mxCell id="j4gY_w8FPZH6L7lz_LQ5-14" value="&amp;nbsp; Prop. Service Position" style="rounded=0;whiteSpace=wrap;html=1;fillColor=none;strokeWidth=2;align=left;" parent="1" vertex="1">
          <mxGeometry x="160" y="459.97" width="150" height="30" as="geometry" />
        </mxCell>
        <mxCell id="j4gY_w8FPZH6L7lz_LQ5-15" value="&amp;nbsp; Prop. Picking Module ID" style="rounded=0;whiteSpace=wrap;html=1;fillColor=none;strokeWidth=2;align=left;" parent="1" vertex="1">
          <mxGeometry x="160" y="489.97" width="150" height="30" as="geometry" />
        </mxCell>
        <mxCell id="j4gY_w8FPZH6L7lz_LQ5-16" value="&amp;nbsp; Prop. Picking Direction" style="rounded=0;whiteSpace=wrap;html=1;fillColor=none;strokeWidth=2;align=left;" parent="1" vertex="1">
          <mxGeometry x="160" y="519.97" width="150" height="30" as="geometry" />
        </mxCell>
        <mxCell id="j4gY_w8FPZH6L7lz_LQ5-17" value="&amp;nbsp; Prop. Placing Module ID" style="rounded=0;whiteSpace=wrap;html=1;fillColor=none;strokeWidth=2;align=left;" parent="1" vertex="1">
          <mxGeometry x="160" y="549.97" width="150" height="30" as="geometry" />
        </mxCell>
        <mxCell id="j4gY_w8FPZH6L7lz_LQ5-18" value="&amp;nbsp; Prop. Placing Direction" style="rounded=0;whiteSpace=wrap;html=1;fillColor=none;strokeWidth=2;align=left;" parent="1" vertex="1">
          <mxGeometry x="160" y="579.97" width="150" height="30" as="geometry" />
        </mxCell>
        <mxCell id="j4gY_w8FPZH6L7lz_LQ5-19" value="&amp;nbsp; Range. Loading Capacity" style="rounded=0;whiteSpace=wrap;html=1;fillColor=none;strokeWidth=2;align=left;" parent="1" vertex="1">
          <mxGeometry x="160" y="629.97" width="150" height="30" as="geometry" />
        </mxCell>
        <mxCell id="j4gY_w8FPZH6L7lz_LQ5-20" value="&amp;nbsp; Range. Workspace" style="rounded=0;whiteSpace=wrap;html=1;fillColor=none;strokeWidth=2;align=left;" parent="1" vertex="1">
          <mxGeometry x="160" y="659.97" width="150" height="30" as="geometry" />
        </mxCell>
        <mxCell id="j4gY_w8FPZH6L7lz_LQ5-22" value="Concept Description" style="rounded=0;whiteSpace=wrap;html=1;fillColor=none;strokeWidth=2;" parent="1" vertex="1">
          <mxGeometry x="240" y="710" width="120" height="30" as="geometry" />
        </mxCell>
        <mxCell id="j4gY_w8FPZH6L7lz_LQ5-89" style="edgeStyle=orthogonalEdgeStyle;rounded=0;orthogonalLoop=1;jettySize=auto;html=1;exitX=0;exitY=1;exitDx=0;exitDy=0;entryX=0;entryY=0.5;entryDx=0;entryDy=0;" parent="1" source="j4gY_w8FPZH6L7lz_LQ5-23" target="j4gY_w8FPZH6L7lz_LQ5-24" edge="1">
          <mxGeometry relative="1" as="geometry">
            <Array as="points">
              <mxPoint x="410" y="280" />
              <mxPoint x="410" y="335" />
            </Array>
          </mxGeometry>
        </mxCell>
        <mxCell id="j4gY_w8FPZH6L7lz_LQ5-90" style="edgeStyle=orthogonalEdgeStyle;rounded=0;orthogonalLoop=1;jettySize=auto;html=1;exitX=0.25;exitY=1;exitDx=0;exitDy=0;entryX=0;entryY=0.5;entryDx=0;entryDy=0;" parent="1" source="j4gY_w8FPZH6L7lz_LQ5-23" target="j4gY_w8FPZH6L7lz_LQ5-25" edge="1">
          <mxGeometry relative="1" as="geometry">
            <Array as="points">
              <mxPoint x="410" y="280" />
              <mxPoint x="410" y="465" />
            </Array>
          </mxGeometry>
        </mxCell>
        <mxCell id="j4gY_w8FPZH6L7lz_LQ5-23" value="Documentation Submodel&amp;nbsp;" style="rounded=0;whiteSpace=wrap;html=1;fillColor=none;strokeWidth=2;" parent="1" vertex="1">
          <mxGeometry x="400" y="240" width="200" height="40" as="geometry" />
        </mxCell>
        <mxCell id="WIjiCzMJ-4afOxJQamRM-13" style="edgeStyle=orthogonalEdgeStyle;rounded=0;orthogonalLoop=1;jettySize=auto;html=1;exitX=0.5;exitY=1;exitDx=0;exitDy=0;entryX=0.421;entryY=-0.001;entryDx=0;entryDy=0;entryPerimeter=0;" edge="1" parent="1" source="j4gY_w8FPZH6L7lz_LQ5-24" target="j4gY_w8FPZH6L7lz_LQ5-27">
          <mxGeometry relative="1" as="geometry">
            <Array as="points">
              <mxPoint x="520" y="350" />
            </Array>
          </mxGeometry>
        </mxCell>
        <mxCell id="j4gY_w8FPZH6L7lz_LQ5-24" value="&amp;nbsp; SMC. Technial Specification" style="rounded=0;whiteSpace=wrap;html=1;fillColor=none;strokeWidth=2;align=left;" parent="1" vertex="1">
          <mxGeometry x="430" y="320" width="170" height="30" as="geometry" />
        </mxCell>
        <mxCell id="WIjiCzMJ-4afOxJQamRM-22" style="edgeStyle=orthogonalEdgeStyle;rounded=0;orthogonalLoop=1;jettySize=auto;html=1;exitX=0.5;exitY=1;exitDx=0;exitDy=0;entryX=0.422;entryY=-0.028;entryDx=0;entryDy=0;entryPerimeter=0;" edge="1" parent="1" source="j4gY_w8FPZH6L7lz_LQ5-25" target="j4gY_w8FPZH6L7lz_LQ5-29">
          <mxGeometry relative="1" as="geometry" />
        </mxCell>
        <mxCell id="j4gY_w8FPZH6L7lz_LQ5-25" value="&amp;nbsp; SMC. User Manual" style="rounded=0;whiteSpace=wrap;html=1;fillColor=none;strokeWidth=2;align=left;" parent="1" vertex="1">
          <mxGeometry x="430" y="450" width="170" height="30" as="geometry" />
        </mxCell>
        <mxCell id="j4gY_w8FPZH6L7lz_LQ5-26" value="&amp;nbsp; File. CompanyLogo" style="rounded=0;whiteSpace=wrap;html=1;fillColor=none;strokeWidth=2;align=left;" parent="1" vertex="1">
          <mxGeometry x="-80" y="600" width="160" height="30" as="geometry" />
        </mxCell>
        <mxCell id="WIjiCzMJ-4afOxJQamRM-15" style="edgeStyle=orthogonalEdgeStyle;rounded=0;orthogonalLoop=1;jettySize=auto;html=1;entryX=0.834;entryY=-0.012;entryDx=0;entryDy=0;entryPerimeter=0;" edge="1" parent="1" target="j4gY_w8FPZH6L7lz_LQ5-30">
          <mxGeometry relative="1" as="geometry">
            <mxPoint x="630" y="385" as="sourcePoint" />
            <Array as="points">
              <mxPoint x="650" y="385" />
              <mxPoint x="650" y="550" />
            </Array>
          </mxGeometry>
        </mxCell>
        <mxCell id="j4gY_w8FPZH6L7lz_LQ5-27" value="&amp;nbsp; Prop. Technial Specification DE" style="rounded=0;whiteSpace=wrap;html=1;fillColor=none;strokeWidth=2;align=left;" parent="1" vertex="1">
          <mxGeometry x="440" y="370" width="190" height="30" as="geometry" />
        </mxCell>
        <mxCell id="j4gY_w8FPZH6L7lz_LQ5-28" value="&amp;nbsp; Prop. Technial Specification EN" style="rounded=0;whiteSpace=wrap;html=1;fillColor=none;strokeWidth=2;align=left;" parent="1" vertex="1">
          <mxGeometry x="440" y="400" width="190" height="30" as="geometry" />
        </mxCell>
        <mxCell id="j4gY_w8FPZH6L7lz_LQ5-29" value="&amp;nbsp; Prop. User Manual EN" style="rounded=0;whiteSpace=wrap;html=1;fillColor=none;strokeWidth=2;align=left;" parent="1" vertex="1">
          <mxGeometry x="440" y="500" width="190" height="30" as="geometry" />
        </mxCell>
        <mxCell id="j4gY_w8FPZH6L7lz_LQ5-30" value="Concept Description" style="rounded=0;whiteSpace=wrap;html=1;fillColor=none;strokeWidth=2;" parent="1" vertex="1">
          <mxGeometry x="550" y="549.97" width="120" height="30" as="geometry" />
        </mxCell>
        <mxCell id="WIjiCzMJ-4afOxJQamRM-23" style="edgeStyle=orthogonalEdgeStyle;rounded=0;orthogonalLoop=1;jettySize=auto;html=1;exitX=0;exitY=1;exitDx=0;exitDy=0;entryX=0;entryY=0.5;entryDx=0;entryDy=0;" edge="1" parent="1" source="j4gY_w8FPZH6L7lz_LQ5-31" target="j4gY_w8FPZH6L7lz_LQ5-32">
          <mxGeometry relative="1" as="geometry">
            <Array as="points">
              <mxPoint x="690" y="280" />
              <mxPoint x="690" y="335" />
            </Array>
          </mxGeometry>
        </mxCell>
        <mxCell id="WIjiCzMJ-4afOxJQamRM-24" style="edgeStyle=orthogonalEdgeStyle;rounded=0;orthogonalLoop=1;jettySize=auto;html=1;exitX=0;exitY=1;exitDx=0;exitDy=0;entryX=0;entryY=0.5;entryDx=0;entryDy=0;" edge="1" parent="1" source="j4gY_w8FPZH6L7lz_LQ5-31" target="j4gY_w8FPZH6L7lz_LQ5-35">
          <mxGeometry relative="1" as="geometry">
            <Array as="points">
              <mxPoint x="690" y="280" />
              <mxPoint x="690" y="465" />
            </Array>
          </mxGeometry>
        </mxCell>
        <mxCell id="WIjiCzMJ-4afOxJQamRM-25" style="edgeStyle=orthogonalEdgeStyle;rounded=0;orthogonalLoop=1;jettySize=auto;html=1;exitX=0;exitY=1;exitDx=0;exitDy=0;entryX=0;entryY=0.5;entryDx=0;entryDy=0;" edge="1" parent="1" source="j4gY_w8FPZH6L7lz_LQ5-31" target="j4gY_w8FPZH6L7lz_LQ5-38">
          <mxGeometry relative="1" as="geometry">
            <Array as="points">
              <mxPoint x="690" y="280" />
              <mxPoint x="690" y="600" />
            </Array>
          </mxGeometry>
        </mxCell>
        <mxCell id="j4gY_w8FPZH6L7lz_LQ5-31" value="CAD Submodel&amp;nbsp;" style="rounded=0;whiteSpace=wrap;html=1;fillColor=none;strokeWidth=2;" parent="1" vertex="1">
          <mxGeometry x="680" y="240" width="200" height="40" as="geometry" />
        </mxCell>
        <mxCell id="WIjiCzMJ-4afOxJQamRM-27" style="edgeStyle=orthogonalEdgeStyle;rounded=0;orthogonalLoop=1;jettySize=auto;html=1;exitX=0.5;exitY=1;exitDx=0;exitDy=0;entryX=0.5;entryY=0;entryDx=0;entryDy=0;" edge="1" parent="1" source="j4gY_w8FPZH6L7lz_LQ5-32" target="j4gY_w8FPZH6L7lz_LQ5-33">
          <mxGeometry relative="1" as="geometry" />
        </mxCell>
        <mxCell id="j4gY_w8FPZH6L7lz_LQ5-32" value="&amp;nbsp; SMC. Gripper Assembly" style="rounded=0;whiteSpace=wrap;html=1;fillColor=none;strokeWidth=2;align=left;" parent="1" vertex="1">
          <mxGeometry x="710" y="320" width="170" height="30" as="geometry" />
        </mxCell>
        <mxCell id="WIjiCzMJ-4afOxJQamRM-35" style="edgeStyle=orthogonalEdgeStyle;rounded=0;orthogonalLoop=1;jettySize=auto;html=1;exitX=1;exitY=0.5;exitDx=0;exitDy=0;entryX=0.834;entryY=-0.029;entryDx=0;entryDy=0;entryPerimeter=0;" edge="1" parent="1" source="j4gY_w8FPZH6L7lz_LQ5-33" target="j4gY_w8FPZH6L7lz_LQ5-45">
          <mxGeometry relative="1" as="geometry" />
        </mxCell>
        <mxCell id="j4gY_w8FPZH6L7lz_LQ5-33" value="&amp;nbsp; Prop. CAD 3D Model" style="rounded=0;whiteSpace=wrap;html=1;fillColor=none;strokeWidth=2;align=left;" parent="1" vertex="1">
          <mxGeometry x="720" y="370" width="136" height="30" as="geometry" />
        </mxCell>
        <mxCell id="WIjiCzMJ-4afOxJQamRM-36" style="edgeStyle=orthogonalEdgeStyle;rounded=0;orthogonalLoop=1;jettySize=auto;html=1;exitX=1;exitY=0.5;exitDx=0;exitDy=0;endArrow=none;endFill=0;" edge="1" parent="1" source="j4gY_w8FPZH6L7lz_LQ5-34">
          <mxGeometry relative="1" as="geometry">
            <mxPoint x="960" y="415.1212121212121" as="targetPoint" />
          </mxGeometry>
        </mxCell>
        <mxCell id="j4gY_w8FPZH6L7lz_LQ5-34" value="&amp;nbsp; Prop. CAD Drawing" style="rounded=0;whiteSpace=wrap;html=1;fillColor=none;strokeWidth=2;align=left;" parent="1" vertex="1">
          <mxGeometry x="720" y="400" width="136" height="30" as="geometry" />
        </mxCell>
        <mxCell id="WIjiCzMJ-4afOxJQamRM-28" style="edgeStyle=orthogonalEdgeStyle;rounded=0;orthogonalLoop=1;jettySize=auto;html=1;exitX=0.5;exitY=1;exitDx=0;exitDy=0;entryX=0.517;entryY=-0.013;entryDx=0;entryDy=0;entryPerimeter=0;" edge="1" parent="1" source="j4gY_w8FPZH6L7lz_LQ5-35" target="j4gY_w8FPZH6L7lz_LQ5-36">
          <mxGeometry relative="1" as="geometry" />
        </mxCell>
        <mxCell id="j4gY_w8FPZH6L7lz_LQ5-35" value="&amp;nbsp; SMC. Setting Base Tool Assembly" style="rounded=0;whiteSpace=wrap;html=1;fillColor=none;strokeWidth=2;align=left;" parent="1" vertex="1">
          <mxGeometry x="710" y="450" width="200" height="30" as="geometry" />
        </mxCell>
        <mxCell id="WIjiCzMJ-4afOxJQamRM-37" style="edgeStyle=orthogonalEdgeStyle;rounded=0;orthogonalLoop=1;jettySize=auto;html=1;exitX=1;exitY=0.5;exitDx=0;exitDy=0;endArrow=none;endFill=0;" edge="1" parent="1" source="j4gY_w8FPZH6L7lz_LQ5-36">
          <mxGeometry relative="1" as="geometry">
            <mxPoint x="960" y="515.1212121212121" as="targetPoint" />
          </mxGeometry>
        </mxCell>
        <mxCell id="j4gY_w8FPZH6L7lz_LQ5-36" value="&amp;nbsp; Prop. CAD 3D Model" style="rounded=0;whiteSpace=wrap;html=1;fillColor=none;strokeWidth=2;align=left;" parent="1" vertex="1">
          <mxGeometry x="720" y="500" width="136" height="30" as="geometry" />
        </mxCell>
        <mxCell id="WIjiCzMJ-4afOxJQamRM-38" style="edgeStyle=orthogonalEdgeStyle;rounded=0;orthogonalLoop=1;jettySize=auto;html=1;exitX=1;exitY=0.5;exitDx=0;exitDy=0;endArrow=none;endFill=0;" edge="1" parent="1" source="j4gY_w8FPZH6L7lz_LQ5-37">
          <mxGeometry relative="1" as="geometry">
            <mxPoint x="960" y="545.047619047619" as="targetPoint" />
          </mxGeometry>
        </mxCell>
        <mxCell id="j4gY_w8FPZH6L7lz_LQ5-37" value="&amp;nbsp; Prop. CAD Drawing" style="rounded=0;whiteSpace=wrap;html=1;fillColor=none;strokeWidth=2;align=left;" parent="1" vertex="1">
          <mxGeometry x="720" y="530" width="136" height="30" as="geometry" />
        </mxCell>
        <mxCell id="WIjiCzMJ-4afOxJQamRM-45" style="edgeStyle=orthogonalEdgeStyle;rounded=0;orthogonalLoop=1;jettySize=auto;html=1;exitX=0.5;exitY=1;exitDx=0;exitDy=0;entryX=0.335;entryY=-0.006;entryDx=0;entryDy=0;entryPerimeter=0;" edge="1" parent="1" source="j4gY_w8FPZH6L7lz_LQ5-38" target="j4gY_w8FPZH6L7lz_LQ5-39">
          <mxGeometry relative="1" as="geometry" />
        </mxCell>
        <mxCell id="j4gY_w8FPZH6L7lz_LQ5-38" value="&amp;nbsp; SMC. WTU with Digital Factory" style="rounded=0;whiteSpace=wrap;html=1;fillColor=none;strokeWidth=2;align=left;" parent="1" vertex="1">
          <mxGeometry x="710" y="585" width="200" height="30" as="geometry" />
        </mxCell>
        <mxCell id="WIjiCzMJ-4afOxJQamRM-39" style="edgeStyle=orthogonalEdgeStyle;rounded=0;orthogonalLoop=1;jettySize=auto;html=1;exitX=1;exitY=0.5;exitDx=0;exitDy=0;endArrow=none;endFill=0;" edge="1" parent="1" source="j4gY_w8FPZH6L7lz_LQ5-39">
          <mxGeometry relative="1" as="geometry">
            <mxPoint x="960" y="654.9036144578313" as="targetPoint" />
          </mxGeometry>
        </mxCell>
        <mxCell id="j4gY_w8FPZH6L7lz_LQ5-39" value="&amp;nbsp; Prop. CAD 3D Model" style="rounded=0;whiteSpace=wrap;html=1;fillColor=none;strokeWidth=2;align=left;" parent="1" vertex="1">
          <mxGeometry x="720" y="640" width="210" height="30" as="geometry" />
        </mxCell>
        <mxCell id="WIjiCzMJ-4afOxJQamRM-40" style="edgeStyle=orthogonalEdgeStyle;rounded=0;orthogonalLoop=1;jettySize=auto;html=1;exitX=1;exitY=0.5;exitDx=0;exitDy=0;endArrow=none;endFill=0;" edge="1" parent="1" source="j4gY_w8FPZH6L7lz_LQ5-40">
          <mxGeometry relative="1" as="geometry">
            <mxPoint x="960" y="685.0240963855421" as="targetPoint" />
          </mxGeometry>
        </mxCell>
        <mxCell id="j4gY_w8FPZH6L7lz_LQ5-40" value="&amp;nbsp; Prop. CAD Drawing Workspace" style="rounded=0;whiteSpace=wrap;html=1;fillColor=none;strokeWidth=2;align=left;" parent="1" vertex="1">
          <mxGeometry x="720" y="670" width="210" height="30" as="geometry" />
        </mxCell>
        <mxCell id="WIjiCzMJ-4afOxJQamRM-41" style="edgeStyle=orthogonalEdgeStyle;rounded=0;orthogonalLoop=1;jettySize=auto;html=1;exitX=1;exitY=0.5;exitDx=0;exitDy=0;endArrow=none;endFill=0;" edge="1" parent="1" source="j4gY_w8FPZH6L7lz_LQ5-41">
          <mxGeometry relative="1" as="geometry">
            <mxPoint x="960" y="714.9036144578313" as="targetPoint" />
          </mxGeometry>
        </mxCell>
        <mxCell id="j4gY_w8FPZH6L7lz_LQ5-41" value="&amp;nbsp; Prop. CAD Drawing Maximum Area" style="rounded=0;whiteSpace=wrap;html=1;fillColor=none;strokeWidth=2;align=left;" parent="1" vertex="1">
          <mxGeometry x="720" y="700" width="210" height="30" as="geometry" />
        </mxCell>
        <mxCell id="WIjiCzMJ-4afOxJQamRM-42" style="edgeStyle=orthogonalEdgeStyle;rounded=0;orthogonalLoop=1;jettySize=auto;html=1;exitX=1;exitY=0.5;exitDx=0;exitDy=0;endArrow=none;endFill=0;" edge="1" parent="1" source="j4gY_w8FPZH6L7lz_LQ5-42">
          <mxGeometry relative="1" as="geometry">
            <mxPoint x="960" y="745.0240963855421" as="targetPoint" />
          </mxGeometry>
        </mxCell>
        <mxCell id="j4gY_w8FPZH6L7lz_LQ5-42" value="&amp;nbsp; Prop. CAD Drawing Conveyor Belt" style="rounded=0;whiteSpace=wrap;html=1;fillColor=none;strokeWidth=2;align=left;" parent="1" vertex="1">
          <mxGeometry x="720" y="730" width="210" height="30" as="geometry" />
        </mxCell>
        <mxCell id="WIjiCzMJ-4afOxJQamRM-43" style="edgeStyle=orthogonalEdgeStyle;rounded=0;orthogonalLoop=1;jettySize=auto;html=1;exitX=1;exitY=0.5;exitDx=0;exitDy=0;endArrow=none;endFill=0;" edge="1" parent="1" source="j4gY_w8FPZH6L7lz_LQ5-43">
          <mxGeometry relative="1" as="geometry">
            <mxPoint x="960" y="774.9036144578313" as="targetPoint" />
          </mxGeometry>
        </mxCell>
        <mxCell id="j4gY_w8FPZH6L7lz_LQ5-43" value="&amp;nbsp; Prop. CAD Drawing Workpiece" style="rounded=0;whiteSpace=wrap;html=1;fillColor=none;strokeWidth=2;align=left;" parent="1" vertex="1">
          <mxGeometry x="720" y="760" width="210" height="30" as="geometry" />
        </mxCell>
        <mxCell id="WIjiCzMJ-4afOxJQamRM-44" style="edgeStyle=orthogonalEdgeStyle;rounded=0;orthogonalLoop=1;jettySize=auto;html=1;exitX=1;exitY=0.5;exitDx=0;exitDy=0;endArrow=none;endFill=0;" edge="1" parent="1" source="j4gY_w8FPZH6L7lz_LQ5-44">
          <mxGeometry relative="1" as="geometry">
            <mxPoint x="960" y="805.0240963855421" as="targetPoint" />
          </mxGeometry>
        </mxCell>
        <mxCell id="j4gY_w8FPZH6L7lz_LQ5-44" value="&amp;nbsp; Prop. CAD Adapter Plate" style="rounded=0;whiteSpace=wrap;html=1;fillColor=none;strokeWidth=2;align=left;" parent="1" vertex="1">
          <mxGeometry x="720" y="790" width="210" height="30" as="geometry" />
        </mxCell>
        <mxCell id="j4gY_w8FPZH6L7lz_LQ5-45" value="Concept Description" style="rounded=0;whiteSpace=wrap;html=1;fillColor=none;strokeWidth=2;" parent="1" vertex="1">
          <mxGeometry x="860" y="840" width="120" height="30" as="geometry" />
        </mxCell>
        <mxCell id="WIjiCzMJ-4afOxJQamRM-48" style="edgeStyle=orthogonalEdgeStyle;rounded=0;orthogonalLoop=1;jettySize=auto;html=1;exitX=0;exitY=1;exitDx=0;exitDy=0;entryX=0;entryY=0.5;entryDx=0;entryDy=0;" edge="1" parent="1" source="j4gY_w8FPZH6L7lz_LQ5-46" target="j4gY_w8FPZH6L7lz_LQ5-47">
          <mxGeometry relative="1" as="geometry">
            <Array as="points">
              <mxPoint x="989" y="280" />
              <mxPoint x="989" y="335" />
            </Array>
          </mxGeometry>
        </mxCell>
        <mxCell id="WIjiCzMJ-4afOxJQamRM-49" style="edgeStyle=orthogonalEdgeStyle;rounded=0;orthogonalLoop=1;jettySize=auto;html=1;exitX=0;exitY=1;exitDx=0;exitDy=0;entryX=0;entryY=0.5;entryDx=0;entryDy=0;" edge="1" parent="1" source="j4gY_w8FPZH6L7lz_LQ5-46" target="j4gY_w8FPZH6L7lz_LQ5-48">
          <mxGeometry relative="1" as="geometry">
            <Array as="points">
              <mxPoint x="989" y="280" />
              <mxPoint x="989" y="465" />
            </Array>
          </mxGeometry>
        </mxCell>
        <mxCell id="j4gY_w8FPZH6L7lz_LQ5-46" value="Model 3D Print Submodel&amp;nbsp;" style="rounded=0;whiteSpace=wrap;html=1;fillColor=none;strokeWidth=2;" parent="1" vertex="1">
          <mxGeometry x="980" y="240" width="200" height="40" as="geometry" />
        </mxCell>
        <mxCell id="WIjiCzMJ-4afOxJQamRM-50" style="edgeStyle=orthogonalEdgeStyle;rounded=0;orthogonalLoop=1;jettySize=auto;html=1;exitX=0.5;exitY=1;exitDx=0;exitDy=0;entryX=0.25;entryY=0;entryDx=0;entryDy=0;" edge="1" parent="1" source="j4gY_w8FPZH6L7lz_LQ5-47" target="j4gY_w8FPZH6L7lz_LQ5-49">
          <mxGeometry relative="1" as="geometry" />
        </mxCell>
        <mxCell id="j4gY_w8FPZH6L7lz_LQ5-47" value="&amp;nbsp; SMC. Gripper" style="rounded=0;whiteSpace=wrap;html=1;fillColor=none;strokeWidth=2;align=left;" parent="1" vertex="1">
          <mxGeometry x="1010" y="320" width="90" height="30" as="geometry" />
        </mxCell>
        <mxCell id="WIjiCzMJ-4afOxJQamRM-51" style="edgeStyle=orthogonalEdgeStyle;rounded=0;orthogonalLoop=1;jettySize=auto;html=1;exitX=0.25;exitY=1;exitDx=0;exitDy=0;entryX=0.286;entryY=-0.022;entryDx=0;entryDy=0;entryPerimeter=0;" edge="1" parent="1" source="j4gY_w8FPZH6L7lz_LQ5-48" target="j4gY_w8FPZH6L7lz_LQ5-54">
          <mxGeometry relative="1" as="geometry" />
        </mxCell>
        <mxCell id="j4gY_w8FPZH6L7lz_LQ5-48" value="&amp;nbsp; SMC. Setting Base Tool" style="rounded=0;whiteSpace=wrap;html=1;fillColor=none;strokeWidth=2;align=left;" parent="1" vertex="1">
          <mxGeometry x="1010" y="450" width="150" height="30" as="geometry" />
        </mxCell>
        <mxCell id="WIjiCzMJ-4afOxJQamRM-52" style="edgeStyle=orthogonalEdgeStyle;rounded=0;orthogonalLoop=1;jettySize=auto;html=1;exitX=1;exitY=0.5;exitDx=0;exitDy=0;entryX=0.919;entryY=0;entryDx=0;entryDy=0;entryPerimeter=0;" edge="1" parent="1" source="j4gY_w8FPZH6L7lz_LQ5-49" target="j4gY_w8FPZH6L7lz_LQ5-52">
          <mxGeometry relative="1" as="geometry">
            <mxPoint x="1220" y="580" as="targetPoint" />
          </mxGeometry>
        </mxCell>
        <mxCell id="j4gY_w8FPZH6L7lz_LQ5-49" value="&amp;nbsp; Prop. Gripper Left 3D Model" style="rounded=0;whiteSpace=wrap;html=1;fillColor=none;strokeWidth=2;align=left;" parent="1" vertex="1">
          <mxGeometry x="1020" y="369.97" width="176" height="30" as="geometry" />
        </mxCell>
        <mxCell id="j4gY_w8FPZH6L7lz_LQ5-52" value="Concept Description" style="rounded=0;whiteSpace=wrap;html=1;fillColor=none;strokeWidth=2;" parent="1" vertex="1">
          <mxGeometry x="1110" y="585" width="120" height="30" as="geometry" />
        </mxCell>
        <mxCell id="WIjiCzMJ-4afOxJQamRM-53" style="edgeStyle=orthogonalEdgeStyle;rounded=0;orthogonalLoop=1;jettySize=auto;html=1;exitX=1;exitY=0.5;exitDx=0;exitDy=0;endArrow=none;endFill=0;" edge="1" parent="1" source="j4gY_w8FPZH6L7lz_LQ5-53">
          <mxGeometry relative="1" as="geometry">
            <mxPoint x="1220" y="415" as="targetPoint" />
          </mxGeometry>
        </mxCell>
        <mxCell id="j4gY_w8FPZH6L7lz_LQ5-53" value="&amp;nbsp; Prop. Gripper Right 3D Model" style="rounded=0;whiteSpace=wrap;html=1;fillColor=none;strokeWidth=2;align=left;" parent="1" vertex="1">
          <mxGeometry x="1020" y="399.97" width="176" height="30" as="geometry" />
        </mxCell>
        <mxCell id="WIjiCzMJ-4afOxJQamRM-54" style="edgeStyle=orthogonalEdgeStyle;rounded=0;orthogonalLoop=1;jettySize=auto;html=1;exitX=1;exitY=0.5;exitDx=0;exitDy=0;endArrow=none;endFill=0;" edge="1" parent="1" source="j4gY_w8FPZH6L7lz_LQ5-54">
          <mxGeometry relative="1" as="geometry">
            <mxPoint x="1220" y="515" as="targetPoint" />
          </mxGeometry>
        </mxCell>
        <mxCell id="j4gY_w8FPZH6L7lz_LQ5-54" value="&amp;nbsp; Prop. Holder 3D Model" style="rounded=0;whiteSpace=wrap;html=1;fillColor=none;strokeWidth=2;align=left;" parent="1" vertex="1">
          <mxGeometry x="1020" y="500" width="156" height="30" as="geometry" />
        </mxCell>
        <mxCell id="WIjiCzMJ-4afOxJQamRM-55" style="edgeStyle=orthogonalEdgeStyle;rounded=0;orthogonalLoop=1;jettySize=auto;html=1;exitX=1;exitY=0.5;exitDx=0;exitDy=0;endArrow=none;endFill=0;" edge="1" parent="1" source="j4gY_w8FPZH6L7lz_LQ5-55">
          <mxGeometry relative="1" as="geometry">
            <mxPoint x="1220" y="545" as="targetPoint" />
          </mxGeometry>
        </mxCell>
        <mxCell id="j4gY_w8FPZH6L7lz_LQ5-55" value="&amp;nbsp; Prop. Tip Right 3D Model" style="rounded=0;whiteSpace=wrap;html=1;fillColor=none;strokeWidth=2;align=left;" parent="1" vertex="1">
          <mxGeometry x="1020" y="530" width="156" height="30" as="geometry" />
        </mxCell>
        <mxCell id="j4gY_w8FPZH6L7lz_LQ5-73" style="rounded=0;orthogonalLoop=1;jettySize=auto;html=1;exitX=1;exitY=0.5;exitDx=0;exitDy=0;endArrow=none;endFill=0;" parent="1" edge="1">
          <mxGeometry relative="1" as="geometry">
            <mxPoint x="100" y="434.88" as="targetPoint" />
            <mxPoint x="80" y="434.88" as="sourcePoint" />
            <Array as="points">
              <mxPoint x="90" y="434.88" />
            </Array>
          </mxGeometry>
        </mxCell>
        <mxCell id="j4gY_w8FPZH6L7lz_LQ5-74" style="rounded=0;orthogonalLoop=1;jettySize=auto;html=1;exitX=1;exitY=0.5;exitDx=0;exitDy=0;endArrow=none;endFill=0;" parent="1" edge="1">
          <mxGeometry relative="1" as="geometry">
            <mxPoint x="100" y="569.75" as="targetPoint" />
            <mxPoint x="80" y="569.75" as="sourcePoint" />
            <Array as="points">
              <mxPoint x="90" y="569.75" />
            </Array>
          </mxGeometry>
        </mxCell>
        <mxCell id="j4gY_w8FPZH6L7lz_LQ5-75" style="rounded=0;orthogonalLoop=1;jettySize=auto;html=1;exitX=1;exitY=0.5;exitDx=0;exitDy=0;endArrow=none;endFill=0;" parent="1" edge="1">
          <mxGeometry relative="1" as="geometry">
            <mxPoint x="100" y="614.88" as="targetPoint" />
            <mxPoint x="80" y="614.88" as="sourcePoint" />
            <Array as="points">
              <mxPoint x="90" y="614.88" />
            </Array>
          </mxGeometry>
        </mxCell>
        <mxCell id="j4gY_w8FPZH6L7lz_LQ5-78" style="edgeStyle=orthogonalEdgeStyle;rounded=0;orthogonalLoop=1;jettySize=auto;html=1;exitX=1;exitY=0.5;exitDx=0;exitDy=0;endArrow=none;endFill=0;" parent="1" edge="1">
          <mxGeometry relative="1" as="geometry">
            <mxPoint x="340" y="414.88180722891565" as="targetPoint" />
            <mxPoint x="310" y="414.93" as="sourcePoint" />
          </mxGeometry>
        </mxCell>
        <mxCell id="j4gY_w8FPZH6L7lz_LQ5-79" style="edgeStyle=orthogonalEdgeStyle;rounded=0;orthogonalLoop=1;jettySize=auto;html=1;exitX=1;exitY=0.5;exitDx=0;exitDy=0;endArrow=none;endFill=0;" parent="1" edge="1">
          <mxGeometry relative="1" as="geometry">
            <mxPoint x="340" y="474.8518072289156" as="targetPoint" />
            <mxPoint x="310" y="474.9" as="sourcePoint" />
          </mxGeometry>
        </mxCell>
        <mxCell id="j4gY_w8FPZH6L7lz_LQ5-80" style="edgeStyle=orthogonalEdgeStyle;rounded=0;orthogonalLoop=1;jettySize=auto;html=1;exitX=1;exitY=0.5;exitDx=0;exitDy=0;endArrow=none;endFill=0;" parent="1" edge="1">
          <mxGeometry relative="1" as="geometry">
            <mxPoint x="340" y="444.8518072289157" as="targetPoint" />
            <mxPoint x="310" y="444.90000000000003" as="sourcePoint" />
          </mxGeometry>
        </mxCell>
        <mxCell id="j4gY_w8FPZH6L7lz_LQ5-81" style="edgeStyle=orthogonalEdgeStyle;rounded=0;orthogonalLoop=1;jettySize=auto;html=1;exitX=1;exitY=0.5;exitDx=0;exitDy=0;endArrow=none;endFill=0;" parent="1" edge="1">
          <mxGeometry relative="1" as="geometry">
            <mxPoint x="340" y="504.85180722891573" as="targetPoint" />
            <mxPoint x="310" y="504.9000000000001" as="sourcePoint" />
          </mxGeometry>
        </mxCell>
        <mxCell id="j4gY_w8FPZH6L7lz_LQ5-82" style="edgeStyle=orthogonalEdgeStyle;rounded=0;orthogonalLoop=1;jettySize=auto;html=1;exitX=1;exitY=0.5;exitDx=0;exitDy=0;endArrow=none;endFill=0;" parent="1" edge="1">
          <mxGeometry relative="1" as="geometry">
            <mxPoint x="340" y="534.8518072289156" as="targetPoint" />
            <mxPoint x="310" y="534.9" as="sourcePoint" />
          </mxGeometry>
        </mxCell>
        <mxCell id="j4gY_w8FPZH6L7lz_LQ5-83" style="edgeStyle=orthogonalEdgeStyle;rounded=0;orthogonalLoop=1;jettySize=auto;html=1;exitX=1;exitY=0.5;exitDx=0;exitDy=0;endArrow=none;endFill=0;" parent="1" edge="1">
          <mxGeometry relative="1" as="geometry">
            <mxPoint x="340" y="564.8518072289157" as="targetPoint" />
            <mxPoint x="310" y="564.9000000000001" as="sourcePoint" />
          </mxGeometry>
        </mxCell>
        <mxCell id="j4gY_w8FPZH6L7lz_LQ5-84" style="edgeStyle=orthogonalEdgeStyle;rounded=0;orthogonalLoop=1;jettySize=auto;html=1;exitX=1;exitY=0.5;exitDx=0;exitDy=0;endArrow=none;endFill=0;" parent="1" edge="1">
          <mxGeometry relative="1" as="geometry">
            <mxPoint x="340" y="594.8518072289156" as="targetPoint" />
            <mxPoint x="310" y="594.9" as="sourcePoint" />
          </mxGeometry>
        </mxCell>
        <mxCell id="j4gY_w8FPZH6L7lz_LQ5-85" style="edgeStyle=orthogonalEdgeStyle;rounded=0;orthogonalLoop=1;jettySize=auto;html=1;exitX=1;exitY=0.5;exitDx=0;exitDy=0;endArrow=none;endFill=0;" parent="1" edge="1">
          <mxGeometry relative="1" as="geometry">
            <mxPoint x="340" y="674.8518072289156" as="targetPoint" />
            <mxPoint x="310" y="674.9" as="sourcePoint" />
          </mxGeometry>
        </mxCell>
        <mxCell id="j4gY_w8FPZH6L7lz_LQ5-86" style="edgeStyle=orthogonalEdgeStyle;rounded=0;orthogonalLoop=1;jettySize=auto;html=1;exitX=1;exitY=0.5;exitDx=0;exitDy=0;endArrow=none;endFill=0;" parent="1" edge="1">
          <mxGeometry relative="1" as="geometry">
            <mxPoint x="340" y="644.8518072289156" as="targetPoint" />
            <mxPoint x="310" y="644.9" as="sourcePoint" />
          </mxGeometry>
        </mxCell>
        <mxCell id="j4gY_w8FPZH6L7lz_LQ5-94" style="edgeStyle=orthogonalEdgeStyle;rounded=0;orthogonalLoop=1;jettySize=auto;html=1;exitX=0.5;exitY=1;exitDx=0;exitDy=0;entryX=0.5;entryY=0;entryDx=0;entryDy=0;endArrow=none;endFill=0;dashed=1;strokeWidth=2;" parent="1" source="j4gY_w8FPZH6L7lz_LQ5-4" target="j4gY_w8FPZH6L7lz_LQ5-6" edge="1">
          <mxGeometry relative="1" as="geometry" />
        </mxCell>
        <mxCell id="j4gY_w8FPZH6L7lz_LQ5-4" value="&amp;nbsp; Prop. Serial Number" style="rounded=0;whiteSpace=wrap;html=1;fillColor=none;strokeWidth=2;align=left;" parent="1" vertex="1">
          <mxGeometry x="-80" y="370" width="160" height="30" as="geometry" />
        </mxCell>
        <mxCell id="WIjiCzMJ-4afOxJQamRM-1" style="edgeStyle=orthogonalEdgeStyle;rounded=0;orthogonalLoop=1;jettySize=auto;html=1;exitX=0.5;exitY=1;exitDx=0;exitDy=0;entryX=0.5;entryY=0;entryDx=0;entryDy=0;dashed=1;strokeWidth=2;endArrow=none;endFill=0;" edge="1" parent="1">
          <mxGeometry relative="1" as="geometry">
            <mxPoint x="240" y="380" as="sourcePoint" />
            <mxPoint x="240" y="400" as="targetPoint" />
            <Array as="points">
              <mxPoint x="240" y="400" />
              <mxPoint x="240" y="400" />
            </Array>
          </mxGeometry>
        </mxCell>
        <mxCell id="WIjiCzMJ-4afOxJQamRM-6" style="edgeStyle=orthogonalEdgeStyle;rounded=0;orthogonalLoop=1;jettySize=auto;html=1;exitX=0.5;exitY=1;exitDx=0;exitDy=0;entryX=0.5;entryY=0;entryDx=0;entryDy=0;dashed=1;strokeWidth=2;endArrow=none;endFill=0;" edge="1" parent="1">
          <mxGeometry relative="1" as="geometry">
            <mxPoint x="240" y="610" as="sourcePoint" />
            <mxPoint x="240" y="630" as="targetPoint" />
            <Array as="points">
              <mxPoint x="240" y="630" />
              <mxPoint x="240" y="630" />
            </Array>
          </mxGeometry>
        </mxCell>
        <mxCell id="WIjiCzMJ-4afOxJQamRM-16" style="edgeStyle=orthogonalEdgeStyle;rounded=0;orthogonalLoop=1;jettySize=auto;html=1;endArrow=none;endFill=0;" edge="1" parent="1">
          <mxGeometry relative="1" as="geometry">
            <mxPoint x="650" y="415" as="targetPoint" />
            <mxPoint x="630" y="415" as="sourcePoint" />
          </mxGeometry>
        </mxCell>
        <mxCell id="WIjiCzMJ-4afOxJQamRM-19" style="edgeStyle=orthogonalEdgeStyle;rounded=0;orthogonalLoop=1;jettySize=auto;html=1;endArrow=none;endFill=0;exitX=1;exitY=0.5;exitDx=0;exitDy=0;" edge="1" parent="1" source="j4gY_w8FPZH6L7lz_LQ5-29">
          <mxGeometry relative="1" as="geometry">
            <mxPoint x="650" y="515" as="targetPoint" />
            <mxPoint x="620" y="515" as="sourcePoint" />
          </mxGeometry>
        </mxCell>
      </root>
    </mxGraphModel>
  </diagram>
</mxfile>
